<svg id="Layer_1" data-name="Layer 1" xmlns="http://www.w3.org/2000/svg" viewBox="0 0 376 376"><defs><style>.cls-1{fill:#f22613;}</style></defs><title>deadline_pendaftaran</title><path class="cls-1" d="M488,548H124a6,6,0,0,0,0,12H488a6,6,0,0,0,0-12h0Zm0,0" transform="translate(-118 -208)"/><path class="cls-1" d="M488,572H124a6,6,0,0,0,0,12H488a6,6,0,0,0,0-12h0Zm0,0" transform="translate(-118 -208)"/><path class="cls-1" d="M488,232H468v-6a18,18,0,0,0-36,0v6H372v-6a18,18,0,1,0-36,0v6H276v-6a18,18,0,1,0-36,0v6H180v-6a18,18,0,1,0-36,0v6H124a6,6,0,0,0-6,6V530a6,6,0,0,0,6,6H488a6,6,0,0,0,6-6V238a6,6,0,0,0-6-6h0Zm-44-6a6,6,0,0,1,12,0v24a6,6,0,1,1-12,0V226Zm-96,0a6,6,0,0,1,12,0v24a6,6,0,1,1-12,0V226Zm-96,0a6,6,0,1,1,12,0v24a6,6,0,1,1-12,0V226Zm-96,0a6,6,0,0,1,12,0v24a6,6,0,1,1-12,0V226Zm-12,18v6a18,18,0,1,0,36,0v-6h60v6a18,18,0,1,0,36,0v-6h60v6a18,18,0,1,0,36,0v-6h60v6a18,18,0,1,0,36,0v-6h14v61.84H130V244h14ZM130,524V317.84H482V524H130Zm0,0" transform="translate(-118 -208)"/><path class="cls-1" d="M447.6,389.44h-24a6,6,0,0,0,0,12h24a6,6,0,0,0,0-12h0Zm0,0" transform="translate(-118 -208)"/><path class="cls-1" d="M382.8,389.44h-24a6,6,0,0,0,0,12h24a6,6,0,0,0,0-12h0Zm0,0" transform="translate(-118 -208)"/><path class="cls-1" d="M318,389.44H294a6,6,0,0,0,0,12h24a6,6,0,0,0,0-12h0Zm0,0" transform="translate(-118 -208)"/><path class="cls-1" d="M253.2,389.44h-24a6,6,0,1,0,0,12h24a6,6,0,1,0,0-12h0Zm0,0" transform="translate(-118 -208)"/><path class="cls-1" d="M188.4,389.44h-24a6,6,0,0,0,0,12h24a6,6,0,0,0,0-12h0Zm0,0" transform="translate(-118 -208)"/><path class="cls-1" d="M382.8,432.64h-24a6,6,0,0,0,0,12h24a6,6,0,0,0,0-12h0Zm0,0" transform="translate(-118 -208)"/><path class="cls-1" d="M318,432.64H294a6,6,0,0,0,0,12h24a6,6,0,0,0,0-12h0Zm0,0" transform="translate(-118 -208)"/><path class="cls-1" d="M253.2,432.64h-24a6,6,0,0,0,0,12h24a6,6,0,1,0,0-12h0Zm0,0" transform="translate(-118 -208)"/><path class="cls-1" d="M188.4,432.64h-24a6,6,0,1,0,0,12h24a6,6,0,1,0,0-12h0Zm0,0" transform="translate(-118 -208)"/><path class="cls-1" d="M382.8,475.84h-24a6,6,0,0,0,0,12h24a6,6,0,0,0,0-12h0Zm0,0" transform="translate(-118 -208)"/><path class="cls-1" d="M447.6,432.64h-24a6,6,0,0,0,0,12h24a6,6,0,0,0,0-12h0Zm0,0" transform="translate(-118 -208)"/><path class="cls-1" d="M447.6,475.84h-24a6,6,0,0,0,0,12h24a6,6,0,0,0,0-12h0Zm0,0" transform="translate(-118 -208)"/><path class="cls-1" d="M318,475.84H294a6,6,0,0,0,0,12h24a6,6,0,0,0,0-12h0Zm0,0" transform="translate(-118 -208)"/><path class="cls-1" d="M253.2,475.84h-24a6,6,0,0,0,0,12h24a6,6,0,1,0,0-12h0Zm0,0" transform="translate(-118 -208)"/><path class="cls-1" d="M188.4,475.84h-24a6,6,0,0,0,0,12h24a6,6,0,1,0,0-12h0Zm0,0" transform="translate(-118 -208)"/><path class="cls-1" d="M447.6,346.24h-24a6,6,0,0,0,0,12h24a6,6,0,0,0,0-12h0Zm0,0" transform="translate(-118 -208)"/><path class="cls-1" d="M382.8,346.24h-24a6,6,0,0,0,0,12h24a6,6,0,0,0,0-12h0Zm0,0" transform="translate(-118 -208)"/><path class="cls-1" d="M318,346.24H294a6,6,0,0,0,0,12h24a6,6,0,0,0,0-12h0Zm0,0" transform="translate(-118 -208)"/><path class="cls-1" d="M253.2,346.24h-24a6,6,0,1,0,0,12h24a6,6,0,1,0,0-12h0Zm0,0" transform="translate(-118 -208)"/><path class="cls-1" d="M188.4,346.24h-24a6,6,0,0,0,0,12h24a6,6,0,0,0,0-12h0Zm0,0" transform="translate(-118 -208)"/></svg>