<svg id="Layer_1" data-name="Layer 1" xmlns="http://www.w3.org/2000/svg" viewBox="0 0 222.4 160.2"><defs><style>.cls-1{fill:#f22613;}</style></defs><title>dollar-coins</title><path class="cls-1" d="M416.4,358.1a17.16,17.16,0,0,0-5.33-12.43A17.21,17.21,0,0,0,399.16,316H318.66a17.25,17.25,0,0,0-17,14.53,65.77,65.77,0,0,0-55.36,36.59H211.23a17.21,17.21,0,0,0-11.9,29.67,17.17,17.17,0,0,0,0,24.87,17.16,17.16,0,0,0,0,24.87,17.21,17.21,0,0,0,11.9,29.67h80.51a17.24,17.24,0,0,0,17-14.53,65.77,65.77,0,0,0,55.36-36.59h35.06a17.21,17.21,0,0,0,11.9-29.67,17.17,17.17,0,0,0,0-24.87,17.15,17.15,0,0,0,5.33-12.43h0Zm-9.6,0a7.64,7.64,0,0,1-7.64,7.63H363.39a66,66,0,0,0-11-15.26h46.81a7.64,7.64,0,0,1,7.64,7.63h0Zm0,24.87a7.65,7.65,0,0,1-7.64,7.64H370.62a65.22,65.22,0,0,0-3.14-15.27h31.68A7.64,7.64,0,0,1,406.8,383h0Zm0,24.87a7.64,7.64,0,0,1-7.64,7.63H367.94a65.27,65.27,0,0,0,2.78-15.27h28.44a7.65,7.65,0,0,1,7.64,7.64h0ZM291.74,466.59H211.23a7.63,7.63,0,0,1,0-15.27h58.52a65.19,65.19,0,0,0,29.2,10.13,7.64,7.64,0,0,1-7.21,5.14h0Zm-88.14-32.5a7.64,7.64,0,0,1,7.63-7.63H247a65.88,65.88,0,0,0,11,15.26H211.23a7.64,7.64,0,0,1-7.63-7.63h0Zm0-24.87a7.64,7.64,0,0,1,7.63-7.64h28.55a65.27,65.27,0,0,0,3.14,15.27H211.23a7.64,7.64,0,0,1-7.63-7.63h0Zm0-24.87a7.64,7.64,0,0,1,7.63-7.63h31.22A65.08,65.08,0,0,0,239.68,392H211.23a7.64,7.64,0,0,1-7.63-7.64h0Zm101.6,67.81a56.07,56.07,0,1,1,56.07-56.07,56.13,56.13,0,0,1-56.07,56.07h0ZM318.66,325.6h80.51a7.63,7.63,0,1,1,0,15.27H340.65a65.2,65.2,0,0,0-29.2-10.13,7.65,7.65,0,0,1,7.21-5.14h0Zm0,0" transform="translate(-194 -316)"/><path class="cls-1" d="M353,396.1a47.84,47.84,0,1,0-47.84,47.84A47.89,47.89,0,0,0,353,396.1h0ZM305.2,434.34a38.24,38.24,0,1,1,38.24-38.24,38.28,38.28,0,0,1-38.24,38.24h0Zm0,0" transform="translate(-194 -316)"/><path class="cls-1" d="M310,421.66v-1.5c7.68-1.68,13.18-7.3,13.18-14.18s-5.5-12.5-13.18-14.18v-9.72c2.23,1,3.58,2.61,3.58,4.12a4.8,4.8,0,0,0,9.6,0c0-6.87-5.5-12.5-13.18-14.18v-1.5a4.8,4.8,0,0,0-9.6,0V372c-7.68,1.68-13.18,7.3-13.18,14.18s5.5,12.5,13.18,14.18v9.72c-2.23-1-3.58-2.61-3.58-4.12a4.8,4.8,0,1,0-9.6,0c0,6.87,5.5,12.5,13.18,14.18v1.5a4.8,4.8,0,0,0,9.6,0h0Zm-13.18-35.45c0-1.51,1.36-3.12,3.58-4.12v8.24c-2.23-1-3.58-2.61-3.58-4.12h0ZM313.58,406c0,1.51-1.36,3.12-3.58,4.12v-8.24c2.23,1,3.58,2.61,3.58,4.12h0Zm0,0" transform="translate(-194 -316)"/></svg>