<svg id="Layer_1" data-name="Layer 1" xmlns="http://www.w3.org/2000/svg" viewBox="0 0 376 303.16"><defs><style>.cls-1{fill:#f22613;}</style></defs><title>jurusan</title><path class="cls-1" d="M306,317a6,6,0,0,0,6-6V287a6,6,0,0,0-12,0v24a6,6,0,0,0,6,6h0Zm0,0" transform="translate(-118 -244.68)"/><path class="cls-1" d="M306,495.3a6,6,0,0,0,6-6V335a6,6,0,0,0-12,0V489.3a6,6,0,0,0,6,6h0Zm0,0" transform="translate(-118 -244.68)"/><path class="cls-1" d="M488,268.68a6,6,0,0,0-6,6V525.91H329a9.58,9.58,0,0,0-7.74,3.93l-5.14,6H295.9l-5.14-6a9.59,9.59,0,0,0-7.74-3.93H130V274.68a6,6,0,0,0-12,0V531.91a6,6,0,0,0,6,6H281.87l6.71,7.84a6,6,0,0,0,4.56,2.09h25.72a6,6,0,0,0,4.56-2.1l6.71-7.83H488a6,6,0,0,0,6-6V274.68a6,6,0,0,0-6-6h0Zm0,0" transform="translate(-118 -244.68)"/><path class="cls-1" d="M148,513.91H283a21.56,21.56,0,0,1,18,9.65,6,6,0,0,0,10,0,21.56,21.56,0,0,1,18-9.65H464a6,6,0,0,0,6-6V250.68a6,6,0,0,0-6-6H329a33.5,33.5,0,0,0-23,9.1,33.51,33.51,0,0,0-23-9.1H148a6,6,0,0,0-6,6V507.91a6,6,0,0,0,6,6h0Zm6-257.23H283a21.56,21.56,0,0,1,18,9.66,6,6,0,0,0,10,0,21.56,21.56,0,0,1,18-9.66H458V501.91H329A33.51,33.51,0,0,0,306,511a33.52,33.52,0,0,0-23-9.09H154V256.68Zm0,0" transform="translate(-118 -244.68)"/><path class="cls-1" d="M274,276.68H180a6,6,0,0,0,0,12h94a6,6,0,0,0,0-12h0Zm0,0" transform="translate(-118 -244.68)"/><path class="cls-1" d="M274,300.68H180a6,6,0,0,0,0,12h94a6,6,0,0,0,0-12h0Zm0,0" transform="translate(-118 -244.68)"/><path class="cls-1" d="M274,324.68H180a6,6,0,0,0,0,12h94a6,6,0,0,0,0-12h0Zm0,0" transform="translate(-118 -244.68)"/><path class="cls-1" d="M274,348.68H180a6,6,0,0,0,0,12h94a6,6,0,0,0,0-12h0Zm0,0" transform="translate(-118 -244.68)"/><path class="cls-1" d="M274,372.68H180a6,6,0,0,0,0,12h94a6,6,0,0,0,0-12h0Zm0,0" transform="translate(-118 -244.68)"/><path class="cls-1" d="M180,408.68h47a6,6,0,1,0,0-12H180a6,6,0,0,0,0,12h0Zm0,0" transform="translate(-118 -244.68)"/><path class="cls-1" d="M274,420.68H180a6,6,0,0,0-6,6v49.23a6,6,0,0,0,6,6h94a6,6,0,0,0,6-6V426.68a6,6,0,0,0-6-6h0Zm-6,49.23H186V432.68h82v37.23Zm0,0" transform="translate(-118 -244.68)"/><path class="cls-1" d="M330,385.91h94a6,6,0,0,0,0-12H330a6,6,0,0,0,0,12h0Zm0,0" transform="translate(-118 -244.68)"/><path class="cls-1" d="M330,409.91h94a6,6,0,0,0,0-12H330a6,6,0,0,0,0,12h0Zm0,0" transform="translate(-118 -244.68)"/><path class="cls-1" d="M330,433.91h94a6,6,0,0,0,0-12H330a6,6,0,0,0,0,12h0Zm0,0" transform="translate(-118 -244.68)"/><path class="cls-1" d="M330,457.91h94a6,6,0,0,0,0-12H330a6,6,0,0,0,0,12h0Zm0,0" transform="translate(-118 -244.68)"/><path class="cls-1" d="M330,481.91h47a6,6,0,0,0,0-12H330a6,6,0,0,0,0,12h0Zm0,0" transform="translate(-118 -244.68)"/><path class="cls-1" d="M330,349.91a6,6,0,0,0,0,12,43.69,43.69,0,0,0,22.06-5.71,5.85,5.85,0,0,0,.9-0.52c10-6,17.48-15.59,24-25.39,6.56,9.8,14,19.38,24,25.38a6.19,6.19,0,0,0,.93.54,43.69,43.69,0,0,0,22,5.7,6,6,0,0,0,0-12,32.72,32.72,0,0,1-13.5-2.76v-55.7a32.72,32.72,0,0,1,13.5-2.76,6,6,0,0,0,0-12,43.73,43.73,0,0,0-22,5.7,6.32,6.32,0,0,0-.92.54c-10,6-17.47,15.58-24,25.39-6.56-9.81-14-19.39-24-25.39a6,6,0,0,0-.89-0.52A43.71,43.71,0,0,0,330,276.68a6,6,0,0,0,0,12,32.72,32.72,0,0,1,13.5,2.76v55.7a32.67,32.67,0,0,1-13.5,2.76h0Zm68.5-49.81v38.4c-5.16-5.27-9.7-12-14.37-19.2,4.67-7.23,9.2-13.92,14.37-19.2h0Zm-43,0c5.16,5.27,9.69,12,14.37,19.2-4.68,7.24-9.2,13.93-14.37,19.2V300.1Zm0,0" transform="translate(-118 -244.68)"/></svg>