<svg id="Layer_1" data-name="Layer 1" xmlns="http://www.w3.org/2000/svg" viewBox="0 0 400.93 327.48"><defs><style>.cls-1{fill:#f22613;}</style></defs><title>program_studi</title><path class="cls-1" d="M490.66,306.68L328,237a57.43,57.43,0,0,0-45,0L120.28,306.68a25.2,25.2,0,0,0,0,46.32l19.23,8.24c0,0.2,0,.4,0,0.61v91a18.78,18.78,0,0,0-8,30.31,20,20,0,0,0-5.9,12.51l-4.61,50.67a12.4,12.4,0,0,0,12.35,13.52h24.38A12.4,12.4,0,0,0,170,546.32l-4.61-50.67a20,20,0,0,0-5.91-12.51,18.78,18.78,0,0,0-8-30.31V366.37l32.83,14.07a5.94,5.94,0,0,0,0,.6v45.81c0,19.12,13.09,36.81,36.86,49.8,22.63,12.37,52.57,19.19,84.34,19.19s61.71-6.82,84.34-19.19c23.77-13,36.86-30.68,36.86-49.8V381c0-.2,0-0.41,0-0.6l64-27.44a25.2,25.2,0,0,0,0-46.32h0ZM158,547.71a0.38,0.38,0,0,1-.3.13H133.27a0.4,0.4,0,0,1-.4-0.44l4.61-50.67a8,8,0,0,1,16,0l4.61,50.67a0.38,0.38,0,0,1-.1.3h0Zm-12.49-70.27a6.8,6.8,0,1,1,6.8-6.8,6.81,6.81,0,0,1-6.8,6.8h0Zm269.2-76.19c0,15.52-12.77,30.66-35,41.56a6,6,0,0,0,2.64,11.39,5.93,5.93,0,0,0,2.63-.61c12.35-6,22.25-13.41,29.3-21.59C412,444.65,401.45,456.61,384,466.13c-20.89,11.42-48.8,17.71-78.58,17.71s-57.69-6.29-78.58-17.71c-17.34-9.48-27.84-21.39-30.14-34,6.06,7,14.25,13.39,24.38,18.93,22.63,12.37,52.58,19.18,84.34,19.18a214.8,214.8,0,0,0,26.34-1.61,6,6,0,0,0-1.48-11.91,202.21,202.21,0,0,1-24.86,1.52c-29.78,0-57.69-6.29-78.58-17.71-19.75-10.8-30.62-24.74-30.62-39.27V385.57L283,422.72a57.41,57.41,0,0,0,45,0l86.67-37.14v15.68ZM485.93,342L323.27,411.68a45.37,45.37,0,0,1-35.58,0L163.37,358.42l113.9-19.81c5.12,6.06,15.56,10,28.19,10,18,0,31.6-8.08,31.6-18.8S323.48,311,305.46,311c-16.36,0-29.07,6.67-31.26,15.92L144.44,349.53a5.88,5.88,0,0,0-1.09.3L125,342a13.2,13.2,0,0,1,0-24.26L287.66,248a45.42,45.42,0,0,1,35.59,0l162.69,69.73a13.2,13.2,0,0,1,0,24.26h0ZM285.86,329.84c0-1.75,6.74-6.8,19.6-6.8s19.6,5.05,19.6,6.8-6.74,6.8-19.6,6.8-19.6-5.06-19.6-6.8h0Zm0,0" transform="translate(-105 -232.36)"/></svg>