<svg id="Layer_1" data-name="Layer 1" xmlns="http://www.w3.org/2000/svg" viewBox="0 0 353.09 393.36"><defs><style>.cls-1{fill:#f22613;}</style></defs><title>syarat_nilai</title><path class="cls-1" d="M458.23,200H228.44a23.88,23.88,0,0,0-23.85,23.85v53.38a104.24,104.24,0,0,0,0,200.46v91.83a23.88,23.88,0,0,0,23.85,23.85H416.23a8.41,8.41,0,0,0,5.94-2.46l57.46-57.46a8.42,8.42,0,0,0,2.46-5.94V223.85A23.88,23.88,0,0,0,458.23,200h0ZM228.44,216.8H458.23a7.06,7.06,0,0,1,7.05,7V249.2H221.39V223.85a7.06,7.06,0,0,1,7.05-7h0ZM145.8,377.45a87.43,87.43,0,1,1,87.43,87.43,87.53,87.53,0,0,1-87.43-87.43h0Zm75.59,192.06V481a104.08,104.08,0,0,0,90.4-35.13h51.47a8.4,8.4,0,0,0,0-16.8h-39.5a103.49,103.49,0,0,0,13.31-42.59h26.19a8.4,8.4,0,0,0,0-16.8H337.18a103.48,103.48,0,0,0-12.71-42.59h38.79a8.4,8.4,0,0,0,0-16.8H312.88a104.07,104.07,0,0,0-91.48-36.4V266H465.28V519.1H431.68a23.88,23.88,0,0,0-23.85,23.85v33.61H228.44a7.06,7.06,0,0,1-7.05-7h0Zm203.24-4.83V542.95a7.06,7.06,0,0,1,7-7.05h21.73Zm0,0" transform="translate(-129 -200)"/><path class="cls-1" d="M396.26,327.09h27.89a8.4,8.4,0,1,0,0-16.8H396.26a8.4,8.4,0,1,0,0,16.8h0Zm0,0" transform="translate(-129 -200)"/><path class="cls-1" d="M396.26,386.49h27.89a8.4,8.4,0,1,0,0-16.8H396.26a8.4,8.4,0,1,0,0,16.8h0Zm0,0" transform="translate(-129 -200)"/><path class="cls-1" d="M396.26,445.88h27.89a8.4,8.4,0,1,0,0-16.8H396.26a8.4,8.4,0,1,0,0,16.8h0Zm0,0" transform="translate(-129 -200)"/><path class="cls-1" d="M424.16,505.27a8.4,8.4,0,1,0,0-16.8H345.58a8.4,8.4,0,1,0,0,16.8h78.58Zm0,0" transform="translate(-129 -200)"/><path class="cls-1" d="M298.45,335.07L288.2,324.83a14.61,14.61,0,0,0-20.66,0l-53.75,53.75-14.86-14.86a14.6,14.6,0,0,0-20.66,0L168,374a14.63,14.63,0,0,0,0,20.66l35.44,35.43a14.61,14.61,0,0,0,20.66,0l74.33-74.34a14.63,14.63,0,0,0,0-20.66h0Zm-84.66,81.57L181.44,384.3l7.15-7.16,19.25,19.25a8.4,8.4,0,0,0,11.88,0l58.14-58.15,7.15,7.15Zm0,0" transform="translate(-129 -200)"/></svg>