<svg id="Layer_1" data-name="Layer 1" xmlns="http://www.w3.org/2000/svg" viewBox="0 0 370.4 344.8"><defs><style>.cls-1{fill:#f22613;}</style></defs><title>tipe_sekolah</title><path class="cls-1" d="M484.4,544.08h-6.8v-112L482,434a6,6,0,0,0,4.73-11L388,380.64V361.1l3.82,2.19a6,6,0,1,0,6-10.42L311.2,303.4V287.28h58a6,6,0,0,0,5-9.33l-10.58-15.87,10.58-15.87a6,6,0,0,0-5-9.33h-58v-6.8a6,6,0,1,0-12,0V303.4l-86.58,49.47a6,6,0,0,0,6,10.42l3.82-2.19v19.54L123.64,423a6,6,0,1,0,4.73,11l4.44-1.9v112H126a6,6,0,0,0,0,12h96.4v6.8a6,6,0,0,0,6,6H382a6,6,0,0,0,6-6v-6.8h96.4a6,6,0,0,0,0-12h0ZM465.6,427v91.53h-20v-62.8a7.61,7.61,0,0,0-7.6-7.6H415.6a7.61,7.61,0,0,0-7.6,7.6v62.8H388V393.69Zm-32,46.73H420v-13.6h13.6v13.6Zm-13.6,12h13.6v32.8H420v-32.8Zm-62-236.8-6.58,9.87a6,6,0,0,0,0,6.66l6.58,9.87H311.2v-26.4H358ZM305.2,313.79l70.87,40.5a5.66,5.66,0,0,0-.07.86V531.28H349.6v-51.6a6,6,0,0,0-6-6H266.8a6,6,0,0,0-6,6v51.6H234.4V355.15a5.65,5.65,0,0,0-.07-0.86ZM272.8,485.68h26.4v71.2H272.8v-71.2Zm38.4,0h26.4v71.2H311.2v-71.2Zm-88.8-92V518.48h-20v-62.8a7.61,7.61,0,0,0-7.6-7.6H172.4a7.61,7.61,0,0,0-7.6,7.6v62.8h-20V427Zm-32,80H176.8v-13.6h13.6v13.6Zm-13.6,12h13.6v32.8H176.8v-32.8Zm-32,58.4v-13.6h77.6v13.6H144.8Zm89.6-.8h26.4v13.6H234.4v-13.6ZM376,556.88H349.6v-13.6H376v13.6Zm12-26.4h77.6v13.6H388v-13.6Zm0,0" transform="translate(-120 -224.08)"/><path class="cls-1" d="M266.8,460.08h25.6a6,6,0,0,0,6-6v-68.8a7.61,7.61,0,0,0-7.6-7.6H268.4a7.61,7.61,0,0,0-7.6,7.6v68.8a6,6,0,0,0,6,6h0Zm6-12v-32.8h13.6v32.8H272.8Zm13.6-58.4v13.6H272.8v-13.6h13.6Zm0,0" transform="translate(-120 -224.08)"/><path class="cls-1" d="M318,460.08h25.6a6,6,0,0,0,6-6v-68.8a7.61,7.61,0,0,0-7.6-7.6H319.6a7.61,7.61,0,0,0-7.6,7.6v68.8a6,6,0,0,0,6,6h0Zm6-12v-32.8h13.6v32.8H324Zm13.6-58.4v13.6H324v-13.6h13.6Zm0,0" transform="translate(-120 -224.08)"/></svg>