<svg id="Layer_1" data-name="Layer 1" xmlns="http://www.w3.org/2000/svg" viewBox="0 0 94 94"><defs><style>.cls-1{fill:#fff;}</style></defs><title>arrow_next</title><path class="cls-1" d="M1207.62,750.21h0a2.76,2.76,0,0,1,.09-3.91L1227,728a2.76,2.76,0,0,0,0-4l-19.26-18.34a2.76,2.76,0,0,1-.09-3.91h0a2.76,2.76,0,0,1,3.91-.09L1235,724a2.76,2.76,0,0,1,0,4l-23.46,22.34A2.76,2.76,0,0,1,1207.62,750.21Z" transform="translate(-1168.07 -678.96)"/><path class="cls-1" d="M1215.07,773a47,47,0,1,1,47-47A47.05,47.05,0,0,1,1215.07,773Zm0-88.47A41.47,41.47,0,1,0,1256.54,726,41.52,41.52,0,0,0,1215.07,684.49Z" transform="translate(-1168.07 -678.96)"/></svg>