<svg id="Layer_1" data-name="Layer 1" xmlns="http://www.w3.org/2000/svg" viewBox="0 0 100 100"><defs><style>.cls-1,.cls-2{fill:#f22613;}.cls-2{stroke:#ff1526;stroke-linecap:round;stroke-linejoin:round;stroke-width:2.5px;}</style></defs><title>author_icon</title><path class="cls-1" d="M735.76,1397.07a50,50,0,1,1,50-50A50.06,50.06,0,0,1,735.76,1397.07Zm0-97.56a47.56,47.56,0,1,0,47.56,47.56A47.61,47.61,0,0,0,735.76,1299.51Z" transform="translate(-685.76 -1297.07)"/><path class="cls-2" d="M723,1330.09" transform="translate(-685.76 -1297.07)"/><path class="cls-1" d="M769.87,1366.91a1.34,1.34,0,0,1-.64-0.16l-2.54-1.37-2.31,1.35a1.34,1.34,0,0,1-2-1.16v-8.31a4.49,4.49,0,0,1,4.48-4.48,4.37,4.37,0,0,1,4.36,4.36v8.44A1.34,1.34,0,0,1,769.87,1366.91Zm-3.72-1.83h0Zm4.24-.48h0Zm-3.72-1.83a1.34,1.34,0,0,1,.64.16l1.46,0.79v-6.59a1.93,1.93,0,0,0-1.93-1.93,2,2,0,0,0-2,2v6.4l1.19-.7A1.35,1.35,0,0,1,766.67,1362.77Z" transform="translate(-685.76 -1297.07)"/><path class="cls-1" d="M766.78,1351.06a1.22,1.22,0,0,1-1.22-1.22v-16a1.22,1.22,0,0,1,2.44,0v16A1.22,1.22,0,0,1,766.78,1351.06Z" transform="translate(-685.76 -1297.07)"/><path class="cls-2" d="M715.13,1357.1" transform="translate(-685.76 -1297.07)"/><path class="cls-1" d="M735.35,1381.29c-10.27,0-17.66-9.7-20.44-19.38a1.22,1.22,0,1,1,2.34-.67c2.53,8.8,9.1,17.62,18.1,17.62h0.18c8.94-.12,19.75-11.56,19.75-25.59a19.61,19.61,0,0,0-39.22,0,26.36,26.36,0,0,0,.27,3.67,1.22,1.22,0,0,1-2.42.34,28.83,28.83,0,0,1-.29-4,22,22,0,0,1,44.1,0c0,12.56-9.88,27.86-22.15,28h-0.22Z" transform="translate(-685.76 -1297.07)"/><path class="cls-1" d="M717.14,1345a1.22,1.22,0,0,1-1.22-1.22v-14a3.15,3.15,0,0,1,2.12-3c4.16-1.45,19-5.72,35.07,0a3.16,3.16,0,0,1,2.08,3v13.5a1.22,1.22,0,0,1-2.44,0v-13.5a0.72,0.72,0,0,0-.46-0.68c-15.33-5.47-29.48-1.39-33.45,0a0.7,0.7,0,0,0-.48.67v14A1.22,1.22,0,0,1,717.14,1345Z" transform="translate(-685.76 -1297.07)"/><path class="cls-1" d="M717.14,1335.38a1.21,1.21,0,0,1-.46-0.09l-17.62-7.12a1.71,1.71,0,0,1,.07-3.19l35.49-12.46a3.2,3.2,0,0,1,2.1,0L772.24,1325a1.7,1.7,0,0,1,.08,3.18l-13.61,5.58a1.22,1.22,0,0,1-.93-2.26l11.81-4.84-33.68-11.82a0.74,0.74,0,0,0-.49,0l-33.66,11.81,15.82,6.4A1.22,1.22,0,0,1,717.14,1335.38Z" transform="translate(-685.76 -1297.07)"/><circle class="cls-1" cx="41.52" cy="56.87" r="1.81"/><circle class="cls-1" cx="58.59" cy="56.87" r="1.81"/><path class="cls-1" d="M735.55,1363.7a1.22,1.22,0,0,1-1.22-1.22v-7.68a1.22,1.22,0,0,1,2.44,0v7.68A1.22,1.22,0,0,1,735.55,1363.7Z" transform="translate(-685.76 -1297.07)"/><path class="cls-1" d="M727.28,1367.29s7.71,11.21,17.07,0" transform="translate(-685.76 -1297.07)"/><path class="cls-1" d="M700.82,1362.79a1.22,1.22,0,0,1-.18-2.43c26.56-3.91,36.51-28,36.61-28.2a1.22,1.22,0,0,1,2.26.91c-0.1.26-10.54,25.59-38.52,29.71h-0.18Z" transform="translate(-685.76 -1297.07)"/></svg>