<svg id="Layer_1" data-name="Layer 1" xmlns="http://www.w3.org/2000/svg" viewBox="0 0 291.44 58.16"><defs><style>.cls-1{fill:#222;}</style></defs><title>sekolahsg_logo</title><path class="cls-1" d="M1379.75,2585.6c-2.44-6.11-6.69-10.06-10.64-10.06-3.2,0-5.58,1.63-5.58,4.42,0,2.33,1.22,3.43,7.39,5.58,7.39,2.56,11.28,5.82,11.28,10.76,0,7.15-7.68,11.11-14.19,11.11-5.53,0-9.36-1.16-11.4-2.33v-7.85h0.12c3.43,5.06,5.7,10.06,11.28,10.06,3.26,0,6.4-1.69,6.4-4.48,0-1.92-1.11-3.14-7-5.53-7.85-3.2-10.82-6.57-10.82-11.05,0-6.75,6.75-10.82,13.15-10.82,3.61,0,7.74.87,10.12,2.33v7.85h-0.12Z" transform="translate(-1356.6 -2562.05)"/><path class="cls-1" d="M1413,2603.17c-2.79,2.33-5.87,4.25-12.51,4.25-10.47,0-16.87-6.8-16.87-15.18,0-10,6.57-16.81,16.23-16.81s13.15,5.87,13.15,13.84h-16.75c0.41,10.12,4.94,15.88,10.18,15.88a10.94,10.94,0,0,0,6.57-2.09v0.12Zm-13.15-14c1.8,0,2.62-.93,2.62-4.54,0-5.23-.81-9.07-2.91-9.07s-3.37,2.79-3.37,9.71c0,2.44.06,3.9,0.06,3.9h3.61Z" transform="translate(-1356.6 -2562.05)"/><path class="cls-1" d="M1438.9,2606.25l-7.5-12.62-0.06,9.6a2.61,2.61,0,0,0,2.91,2.91h1.16v0.12h-21.52v-0.12H1415a2.61,2.61,0,0,0,2.91-2.91v-35l-4.07.93V2569a126.89,126.89,0,0,0,17.45-7v29l6.86-6.4c1.74-1.63,3.14-3.78,3.14-5.41,0-1.45-1.16-2.56-3.72-2.56h-0.76v-0.12h15.41v0.12h-0.87c-1.8,0-5.53.93-10.47,5.58l-2.73,2.56,12.27,18.38c1.28,1.92,2.85,3,4.71,2.91h1.16v0.12H1438.9Z" transform="translate(-1356.6 -2562.05)"/><path class="cls-1" d="M1470,2607.41c-10.59,0-17.45-6.8-17.45-16s6.86-16,17.45-16,17.39,6.81,17.39,16S1480.6,2607.41,1470,2607.41Zm3.72-16c0-11.52-1.45-15.88-3.72-15.88s-3.72,4.36-3.72,15.88,1.45,15.88,3.72,15.88S1473.73,2602.93,1473.73,2591.42Z" transform="translate(-1356.6 -2562.05)"/><path class="cls-1" d="M1487.11,2606.25v-0.12h1.16a2.61,2.61,0,0,0,2.91-2.91v-35l-4.07.93V2569a126.85,126.85,0,0,0,17.45-7v41.18a2.61,2.61,0,0,0,2.91,2.91h1.16v0.12h-21.52Z" transform="translate(-1356.6 -2562.05)"/><path class="cls-1" d="M1544.57,2597.24h0.12v2.68c0,3.2-1.63,7.5-8.55,7.5-4.94,0-8-3-8.38-6.75h-0.12c0,4-3.2,6.75-9.25,6.75-5.41,0-8.61-2.5-8.61-7.21,0-5.24,4.54-8.43,17.74-12.21v-8.09c0-3-1.4-4.25-3.31-4.25-2.21,0-3.32,2.27-3.32,5.64a19.92,19.92,0,0,0,.41,4.25c0,1.57-1.86,4-4.71,4-3.14,0-4.65-2.21-4.65-4.77,0-4.19,4-9.31,14.54-9.31,10.93,0,14.42,5.58,14.42,10.93v13.73c0,1.51.64,2.33,1.8,2.33s1.86-.87,1.86-2.33v-2.85Zm-17-9.13c-3,1.75-4.07,6.46-4.07,11.23,0,3.37.47,4.77,2,4.77,1.28,0,2-1.34,2-3.43V2588.1Z" transform="translate(-1356.6 -2562.05)"/><path class="cls-1" d="M1570,2606.25v-24.37c0-2.27-.93-3.72-2.91-3.72a3.52,3.52,0,0,0-3.49,3.72v21.35a2.61,2.61,0,0,0,2.91,2.91h1.16v0.12h-21.52v-0.12h1.16a2.61,2.61,0,0,0,2.91-2.91v-35l-4.07.93V2569a126.89,126.89,0,0,0,17.45-7v18a13.16,13.16,0,0,1,10.29-4.65c6.63,0,9.48,4.25,9.48,9.31v18.5a2.61,2.61,0,0,0,2.91,2.91h1.16v0.12H1570Z" transform="translate(-1356.6 -2562.05)"/><path class="cls-1" d="M1612.33,2585.6c-2.44-6.11-6.69-10.06-10.64-10.06-3.2,0-5.58,1.63-5.58,4.42,0,2.33,1.22,3.43,7.39,5.58,7.39,2.56,11.28,5.82,11.28,10.76,0,7.15-7.68,11.11-14.19,11.11-5.53,0-9.36-1.16-11.4-2.33v-7.85h0.12c3.43,5.06,5.7,10.06,11.28,10.06,3.26,0,6.4-1.69,6.4-4.48,0-1.92-1.11-3.14-7-5.53-7.85-3.2-10.82-6.57-10.82-11.05,0-6.75,6.75-10.82,13.15-10.82,3.61,0,7.74.87,10.12,2.33v7.85h-0.12Z" transform="translate(-1356.6 -2562.05)"/><path class="cls-1" d="M1617.21,2605.84c0-4.65,3.9-6.34,6.11-7.62-4.19-2-7.68-5.12-7.68-10.76,0-7.79,6.4-12,15-12a27.88,27.88,0,0,1,3.61.35c0.58-7.27,4.36-9.95,7.79-9.95,3.84,0,6,2.56,6,5.47a4.88,4.88,0,0,1-4.94,5c-2.44,0-3.08-2.5-4-3.84a2.17,2.17,0,0,0-2-1.34c-1.11,0-2.62,1.28-2.79,4.65,6.11,1.11,11.28,4.83,11.28,11.69,0,7.56-6.46,12-15,12a20.07,20.07,0,0,1-7.21-1.22c-0.87.64-1.63,1.11-1.63,2.44,0,1.75,1.51,2.21,2.85,2.21,3.84,0,8.78-2.56,14-2.56,4.48,0,9,2.85,9,8.43,0,6.92-7.39,11.4-15.65,11.4-7.85,0-12-2.91-12-6.22a3,3,0,0,1,2.56-2.79C1618.84,2610.44,1617.21,2608.58,1617.21,2605.84Zm7.27,7.21a7,7,0,0,0,7.5,7c5.93,0,8.78-4.07,8.78-6.51,0-2.91-2.38-3.84-4.89-3.84-3.55,0-7.27,1.57-11.05,1.63A4.54,4.54,0,0,0,1624.48,2613.06Zm9.54-25.3c0-8.84-1.69-12.21-3.37-12.21s-3.37,3.37-3.37,12.21,1.69,11.63,3.37,11.63S1634,2596.6,1634,2587.75Z" transform="translate(-1356.6 -2562.05)"/></svg>